<?xml version="1.0" standalone="no"?>
<svg xmlns="http://www.w3.org/2000/svg" xmlns:xlink="http://www.w3.org/1999/xlink" width="917pt" height="995pt" viewBox="0.00 0.00 916.63 995.00">
<g id="graph0" class="graph" transform="translate(4,991) scale(1)" data-name="G">

<polygon fill="#2e3e56" stroke="transparent" points="-4,4 -4,-991 912.63,-991 912.63,4 -4,4" style=""/>
<g id="clust1" class="cluster" data-name="clusterAddressDictator">

<path fill="#445773" stroke="#445773" d="M20,-8C20,-8 192.81,-8 192.81,-8 198.81,-8 204.81,-14 204.81,-20 204.81,-20 204.81,-235 204.81,-235 204.81,-241 198.81,-247 192.81,-247 192.81,-247 20,-247 20,-247 14,-247 8,-241 8,-235 8,-235 8,-20 8,-20 8,-14 14,-8 20,-8" style=""/>
<text text-anchor="middle" x="106.4" y="-230.4" font-family="Times,serif" font-size="14.00" fill="#f0f0f0" style="">AddressDictator</text>
</g>
<g id="clust2" class="cluster" data-name="clusterLib_AddressManager">

<path fill="#445773" stroke="#445773" d="M263.74,-8C263.74,-8 638,-8 638,-8 644,-8 650,-14 650,-20 650,-20 650,-181 650,-181 650,-187 644,-193 638,-193 638,-193 263.74,-193 263.74,-193 257.74,-193 251.74,-187 251.74,-181 251.74,-181 251.74,-20 251.74,-20 251.74,-14 257.74,-8 263.74,-8" style=""/>
<text text-anchor="middle" x="450.87" y="-176.4" font-family="Times,serif" font-size="14.00" fill="#f0f0f0" style="">Lib_AddressManager</text>
</g>
<g id="clust3" class="cluster" data-name="clusterChugSplashDictator">

<path fill="#445773" stroke="#445773" d="M33.94,-572C33.94,-572 178.87,-572 178.87,-572 184.87,-572 190.87,-578 190.87,-584 190.87,-584 190.87,-745 190.87,-745 190.87,-751 184.87,-757 178.87,-757 178.87,-757 33.94,-757 33.94,-757 27.94,-757 21.94,-751 21.94,-745 21.94,-745 21.94,-584 21.94,-584 21.94,-578 27.94,-572 33.94,-572" style=""/>
<text text-anchor="middle" x="106.4" y="-740.4" font-family="Times,serif" font-size="14.00" fill="#f0f0f0" style="">ChugSplashDictator</text>
</g>
<g id="clust4" class="cluster" data-name="clusterL1ChugSplashProxy">

<path fill="#445773" stroke="#445773" d="M237.81,-286C237.81,-286 888.63,-286 888.63,-286 894.63,-286 900.63,-292 900.63,-298 900.63,-298 900.63,-691 900.63,-691 900.63,-697 894.63,-703 888.63,-703 888.63,-703 237.81,-703 237.81,-703 231.81,-703 225.81,-697 225.81,-691 225.81,-691 225.81,-298 225.81,-298 225.81,-292 231.81,-286 237.81,-286" style=""/>
<text text-anchor="middle" x="563.22" y="-686.4" font-family="Times,serif" font-size="14.00" fill="#f0f0f0" style="">L1ChugSplashProxy</text>
</g>
<g id="clust5" class="cluster" data-name="clusteriL1ChugSplashDeployer">

<path fill="#445773" stroke="#445773" d="M19.63,-765C19.63,-765 194.18,-765 194.18,-765 200.18,-765 206.18,-771 206.18,-777 206.18,-777 206.18,-830 206.18,-830 206.18,-836 200.18,-842 194.18,-842 194.18,-842 19.63,-842 19.63,-842 13.63,-842 7.63,-836 7.63,-830 7.63,-830 7.63,-777 7.63,-777 7.63,-771 13.63,-765 19.63,-765" style=""/>
<text text-anchor="middle" x="106.9" y="-825.4" font-family="Times,serif" font-size="14.00" fill="#f0f0f0" style="">iL1ChugSplashDeployer  (iface)</text>
</g>
<g id="clust6" class="cluster" data-name="clusterowner">

<path fill="#3b4b63" stroke="#e8726d" stroke-dasharray="5,2" d="M530.08,-201C530.08,-201 612.8,-201 612.8,-201 618.8,-201 624.8,-207 624.8,-213 624.8,-213 624.8,-266 624.8,-266 624.8,-272 618.8,-278 612.8,-278 612.8,-278 530.08,-278 530.08,-278 524.08,-278 518.08,-272 518.08,-266 518.08,-266 518.08,-213 518.08,-213 518.08,-207 524.08,-201 530.08,-201" style=""/>
<text text-anchor="middle" x="571.44" y="-261.4" font-family="Times,serif" font-size="14.00" fill="#f0f0f0" style="">owner</text>
</g>
<g id="clust7" class="cluster" data-name="cluster_01">

<polygon fill="#2e3e56" stroke="black" points="33.4,-850 33.4,-979 377.63,-979 377.63,-850 33.4,-850" style=""/>
<text text-anchor="middle" x="205.52" y="-962.4" font-family="Times,serif" font-size="14.00" style="">Legend</text>
</g>
<!-- AddressDictator.&lt;Constructor&gt; -->
<g id="node1" class="node" pointer-events="visible" data-name="AddressDictator.&lt;Constructor&gt;">

<ellipse fill="#ff9797" stroke="#ff9797" stroke-width="3" cx="106.4" cy="-196" rx="67.54" ry="18" style=""/>
<text text-anchor="middle" x="106.4" y="-191.8" font-family="Times,serif" font-size="14.00" style="">&lt;Constructor&gt;</text>
</g>
<!-- AddressDictator.setAddresses -->
<g id="node2" class="node" pointer-events="visible" data-name="AddressDictator.setAddresses">

<ellipse fill="#ffbdb9" stroke="#ffbdb9" stroke-width="3" cx="106.4" cy="-142" rx="61.39" ry="18" style=""/>
<text text-anchor="middle" x="106.4" y="-137.8" font-family="Times,serif" font-size="14.00" style="">setAddresses</text>
</g>
<!-- Lib_AddressManager.setAddress -->
<g id="node5" class="node" pointer-events="visible" data-name="Lib_AddressManager.setAddress">

<ellipse fill="#ffbdb9" stroke="#ffbdb9" stroke-width="3" cx="342.63" cy="-142" rx="53.31" ry="18" style=""/>
<text text-anchor="middle" x="342.63" y="-137.8" font-family="Times,serif" font-size="14.00" style="">setAddress</text>
</g>
<!-- AddressDictator.setAddresses&#45;&gt;Lib_AddressManager.setAddress -->
<g id="edge1" class="edge" data-name="AddressDictator.setAddresses-&gt;Lib_AddressManager.setAddress">

<path fill="none" stroke="white" stroke-width="2" d="M168.03,-142C202.06,-142 244.45,-142 278.82,-142" style=""/>
<polygon fill="white" stroke="white" stroke-width="2" points="279.22,-145.5 289.22,-142 279.22,-138.5 279.22,-145.5" style=""/>
</g>
<!-- Lib_AddressManager.transferOwnership -->
<g id="node6" class="node" pointer-events="visible" data-name="Lib_AddressManager.transferOwnership">

<ellipse fill="#edad56" stroke="#edad56" stroke-width="3" cx="342.63" cy="-88" rx="82.78" ry="18" style=""/>
<text text-anchor="middle" x="342.63" y="-83.8" font-family="Times,serif" font-size="14.00" style="">transferOwnership</text>
</g>
<!-- AddressDictator.setAddresses&#45;&gt;Lib_AddressManager.transferOwnership -->
<g id="edge2" class="edge" data-name="AddressDictator.setAddresses-&gt;Lib_AddressManager.transferOwnership">

<path fill="none" stroke="white" stroke-width="2" d="M155.09,-131.01C189.59,-123.05 236.68,-112.2 274.91,-103.38" style=""/>
<polygon fill="white" stroke="white" stroke-width="2" points="275.97,-106.73 284.93,-101.07 274.4,-99.91 275.97,-106.73" style=""/>
</g>
<!-- AddressDictator.returnOwnership -->
<g id="node3" class="node" pointer-events="visible" data-name="AddressDictator.returnOwnership">

<ellipse fill="#ffbdb9" stroke="#ffbdb9" stroke-width="3" cx="106.4" cy="-88" rx="76.42" ry="18" style=""/>
<text text-anchor="middle" x="106.4" y="-83.8" font-family="Times,serif" font-size="14.00" style="">returnOwnership</text>
</g>
<!-- AddressDictator.returnOwnership&#45;&gt;Lib_AddressManager.transferOwnership -->
<g id="edge3" class="edge" data-name="AddressDictator.returnOwnership-&gt;Lib_AddressManager.transferOwnership">

<path fill="none" stroke="white" stroke-width="2" d="M183.13,-88C204.34,-88 227.63,-88 249.67,-88" style=""/>
<polygon fill="white" stroke="white" stroke-width="2" points="249.7,-91.5 259.7,-88 249.7,-84.5 249.7,-91.5" style=""/>
</g>
<!-- AddressDictator.getNamedAddresses -->
<g id="node4" class="node" pointer-events="visible" data-name="AddressDictator.getNamedAddresses">

<ellipse fill="#ffbdb9" stroke="#ffbdb9" stroke-width="3" cx="106.4" cy="-34" rx="90.31" ry="18" style=""/>
<text text-anchor="middle" x="106.4" y="-29.8" font-family="Times,serif" font-size="14.00" style="">getNamedAddresses</text>
</g>
<!-- Lib_AddressManager._getNameHash -->
<g id="node8" class="node" pointer-events="visible" data-name="Lib_AddressManager._getNameHash">

<ellipse fill="#edad56" stroke="#edad56" stroke-width="3" cx="571.44" cy="-88" rx="70.63" ry="18" style=""/>
<text text-anchor="middle" x="571.44" y="-83.8" font-family="Times,serif" font-size="14.00" style="">_getNameHash</text>
</g>
<!-- Lib_AddressManager.setAddress&#45;&gt;Lib_AddressManager._getNameHash -->
<g id="edge4" class="edge" data-name="Lib_AddressManager.setAddress-&gt;Lib_AddressManager._getNameHash">

<path fill="none" stroke="#1bc6a6" stroke-width="2" d="M386.83,-131.72C421.4,-123.49 470.32,-111.84 508.97,-102.64" style=""/>
<polygon fill="#1bc6a6" stroke="#1bc6a6" stroke-width="2" points="510.15,-105.95 519.07,-100.23 508.53,-99.14 510.15,-105.95" style=""/>
</g>
<!-- Lib_AddressManager.getAddress -->
<g id="node7" class="node" pointer-events="visible" data-name="Lib_AddressManager.getAddress">

<ellipse fill="#ffbdb9" stroke="#ffbdb9" stroke-width="3" cx="342.63" cy="-34" rx="54.45" ry="18" style=""/>
<text text-anchor="middle" x="342.63" y="-29.8" font-family="Times,serif" font-size="14.00" style="">getAddress</text>
</g>
<!-- Lib_AddressManager.getAddress&#45;&gt;Lib_AddressManager._getNameHash -->
<g id="edge5" class="edge" data-name="Lib_AddressManager.getAddress-&gt;Lib_AddressManager._getNameHash">

<path fill="none" stroke="#1bc6a6" stroke-width="2" d="M387.36,-44.41C421.99,-52.65 470.76,-64.27 509.25,-73.43" style=""/>
<polygon fill="#1bc6a6" stroke="#1bc6a6" stroke-width="2" points="508.77,-76.92 519.31,-75.83 510.39,-70.11 508.77,-76.92" style=""/>
</g>
<!-- ChugSplashDictator.&lt;Constructor&gt; -->
<g id="node9" class="node" pointer-events="visible" data-name="ChugSplashDictator.&lt;Constructor&gt;">

<ellipse fill="#ff9797" stroke="#ff9797" stroke-width="3" cx="106.4" cy="-706" rx="67.54" ry="18" style=""/>
<text text-anchor="middle" x="106.4" y="-701.8" font-family="Times,serif" font-size="14.00" style="">&lt;Constructor&gt;</text>
</g>
<!-- ChugSplashDictator.doActions -->
<g id="node10" class="node" pointer-events="visible" data-name="ChugSplashDictator.doActions">

<ellipse fill="#ffbdb9" stroke="#ffbdb9" stroke-width="3" cx="106.4" cy="-652" rx="50.96" ry="18" style=""/>
<text text-anchor="middle" x="106.4" y="-647.8" font-family="Times,serif" font-size="14.00" style="">doActions</text>
</g>
<!-- L1ChugSplashProxy.setCode -->
<g id="node12" class="node" pointer-events="visible" data-name="L1ChugSplashProxy.setCode">

<ellipse fill="#ff9797" stroke="#ff9797" stroke-width="3" cx="571.44" cy="-598" rx="42.29" ry="18" style=""/>
<text text-anchor="middle" x="571.44" y="-593.8" font-family="Times,serif" font-size="14.00" style="">setCode</text>
</g>
<!-- ChugSplashDictator.doActions&#45;&gt;L1ChugSplashProxy.setCode -->
<g id="edge6" class="edge" data-name="ChugSplashDictator.doActions-&gt;L1ChugSplashProxy.setCode">

<path fill="none" stroke="white" stroke-width="2" d="M144.8,-663.8C209.08,-682.14 343.95,-712.12 451.46,-679 488.04,-667.73 523.45,-640.94 545.98,-621.25" style=""/>
<polygon fill="white" stroke="white" stroke-width="2" points="548.57,-623.63 553.68,-614.35 543.9,-618.42 548.57,-623.63" style=""/>
</g>
<!-- L1ChugSplashProxy.setStorage -->
<g id="node13" class="node" pointer-events="visible" data-name="L1ChugSplashProxy.setStorage">

<ellipse fill="#ff9797" stroke="#ff9797" stroke-width="3" cx="342.63" cy="-652" rx="51.02" ry="18" style=""/>
<text text-anchor="middle" x="342.63" y="-647.8" font-family="Times,serif" font-size="14.00" style="">setStorage</text>
</g>
<!-- ChugSplashDictator.doActions&#45;&gt;L1ChugSplashProxy.setStorage -->
<g id="edge7" class="edge" data-name="ChugSplashDictator.doActions-&gt;L1ChugSplashProxy.setStorage">

<path fill="none" stroke="white" stroke-width="2" d="M154.8,-646.45C191.94,-644.99 243.78,-644.86 283.44,-646.08" style=""/>
<polygon fill="white" stroke="white" stroke-width="2" points="283.38,-649.58 293.5,-646.42 283.63,-642.58 283.38,-649.58" style=""/>
</g>
<!-- ChugSplashDictator.doActions&#45;&gt;L1ChugSplashProxy.setStorage -->
<g id="edge8" class="edge" data-name="ChugSplashDictator.doActions-&gt;L1ChugSplashProxy.setStorage">

<path fill="none" stroke="white" stroke-width="2" d="M154.8,-657.55C191.94,-659.01 243.78,-659.14 283.44,-657.92" style=""/>
<polygon fill="white" stroke="white" stroke-width="2" points="283.63,-661.42 293.5,-657.58 283.38,-654.42 283.63,-661.42" style=""/>
</g>
<!-- L1ChugSplashProxy.setOwner -->
<g id="node14" class="node" pointer-events="visible" data-name="L1ChugSplashProxy.setOwner">

<ellipse fill="#ff9797" stroke="#ff9797" stroke-width="3" cx="342.63" cy="-598" rx="48.07" ry="18" style=""/>
<text text-anchor="middle" x="342.63" y="-593.8" font-family="Times,serif" font-size="14.00" style="">setOwner</text>
</g>
<!-- ChugSplashDictator.doActions&#45;&gt;L1ChugSplashProxy.setOwner -->
<g id="edge9" class="edge" data-name="ChugSplashDictator.doActions-&gt;L1ChugSplashProxy.setOwner">

<path fill="none" stroke="white" stroke-width="2" d="M149.28,-642.35C189.11,-633.16 249.09,-619.34 291.46,-609.57" style=""/>
<polygon fill="white" stroke="white" stroke-width="2" points="292.34,-612.96 301.29,-607.3 290.76,-606.14 292.34,-612.96" style=""/>
</g>
<!-- ChugSplashDictator.returnOwnership -->
<g id="node11" class="node" pointer-events="visible" data-name="ChugSplashDictator.returnOwnership">

<ellipse fill="#ffbdb9" stroke="#ffbdb9" stroke-width="3" cx="106.4" cy="-598" rx="76.42" ry="18" style=""/>
<text text-anchor="middle" x="106.4" y="-593.8" font-family="Times,serif" font-size="14.00" style="">returnOwnership</text>
</g>
<!-- ChugSplashDictator.returnOwnership&#45;&gt;L1ChugSplashProxy.setOwner -->
<g id="edge10" class="edge" data-name="ChugSplashDictator.returnOwnership-&gt;L1ChugSplashProxy.setOwner">

<path fill="none" stroke="white" stroke-width="2" d="M183.13,-598C216.03,-598 253.94,-598 284.43,-598" style=""/>
<polygon fill="white" stroke="white" stroke-width="2" points="284.47,-601.5 294.47,-598 284.47,-594.5 284.47,-601.5" style=""/>
</g>
<!-- L1ChugSplashProxy._setImplementation -->
<g id="node21" class="node" pointer-events="visible" data-name="L1ChugSplashProxy._setImplementation">

<ellipse fill="#edad56" stroke="#edad56" stroke-width="3" cx="792.03" cy="-652" rx="87.98" ry="18" style=""/>
<text text-anchor="middle" x="792.03" y="-647.8" font-family="Times,serif" font-size="14.00" style="">_setImplementation</text>
</g>
<!-- L1ChugSplashProxy.setCode&#45;&gt;L1ChugSplashProxy._setImplementation -->
<g id="edge20" class="edge" data-name="L1ChugSplashProxy.setCode-&gt;L1ChugSplashProxy._setImplementation">

<path fill="none" stroke="#1bc6a6" stroke-width="2" d="M608.54,-606.92C640.15,-614.73 686.88,-626.27 725.14,-635.72" style=""/>
<polygon fill="#1bc6a6" stroke="#1bc6a6" stroke-width="2" points="724.63,-639.2 735.18,-638.2 726.31,-632.41 724.63,-639.2" style=""/>
</g>
<!-- L1ChugSplashProxy._getImplementation -->
<g id="node22" class="node" pointer-events="visible" data-name="L1ChugSplashProxy._getImplementation">

<ellipse fill="#edad56" stroke="#edad56" stroke-width="3" cx="792.03" cy="-405" rx="88.62" ry="18" style=""/>
<text text-anchor="middle" x="792.03" y="-400.8" font-family="Times,serif" font-size="14.00" style="">_getImplementation</text>
</g>
<!-- L1ChugSplashProxy.setCode&#45;&gt;L1ChugSplashProxy._getImplementation -->
<g id="edge17" class="edge" data-name="L1ChugSplashProxy.setCode-&gt;L1ChugSplashProxy._getImplementation">

<path fill="none" stroke="#1bc6a6" stroke-width="2" d="M610.04,-590.63C625.04,-586.49 641.92,-580.24 655.42,-571 709.92,-533.7 754.02,-468.34 775.96,-431.75" style=""/>
<polygon fill="#1bc6a6" stroke="#1bc6a6" stroke-width="2" points="778.99,-433.5 781.05,-423.11 772.96,-429.95 778.99,-433.5" style=""/>
</g>
<!-- L1ChugSplashProxy._getAccountCodeHash -->
<g id="node25" class="node" pointer-events="visible" data-name="L1ChugSplashProxy._getAccountCodeHash">

<ellipse fill="#edad56" stroke="#edad56" stroke-width="3" cx="792.03" cy="-598" rx="100.71" ry="18" style=""/>
<text text-anchor="middle" x="792.03" y="-593.8" font-family="Times,serif" font-size="14.00" style="">_getAccountCodeHash</text>
</g>
<!-- L1ChugSplashProxy.setCode&#45;&gt;L1ChugSplashProxy._getAccountCodeHash -->
<g id="edge18" class="edge" data-name="L1ChugSplashProxy.setCode-&gt;L1ChugSplashProxy._getAccountCodeHash">

<path fill="none" stroke="#1bc6a6" stroke-width="2" d="M611.77,-592.67C633.34,-591.64 661.17,-591.17 688.45,-591.26" style=""/>
<polygon fill="#1bc6a6" stroke="#1bc6a6" stroke-width="2" points="688.44,-594.76 698.46,-591.32 688.48,-587.76 688.44,-594.76" style=""/>
</g>
<!-- L1ChugSplashProxy.setCode&#45;&gt;L1ChugSplashProxy._getAccountCodeHash -->
<g id="edge19" class="edge" data-name="L1ChugSplashProxy.setCode-&gt;L1ChugSplashProxy._getAccountCodeHash">

<path fill="none" stroke="#1bc6a6" stroke-width="2" d="M611.77,-603.33C633.34,-604.36 661.17,-604.83 688.45,-604.74" style=""/>
<polygon fill="#1bc6a6" stroke="#1bc6a6" stroke-width="2" points="688.48,-608.24 698.46,-604.68 688.44,-601.24 688.48,-608.24" style=""/>
</g>
<!-- L1ChugSplashProxy._setOwner -->
<g id="node23" class="node" pointer-events="visible" data-name="L1ChugSplashProxy._setOwner">

<ellipse fill="#edad56" stroke="#edad56" stroke-width="3" cx="571.44" cy="-544" rx="52.73" ry="18" style=""/>
<text text-anchor="middle" x="571.44" y="-539.8" font-family="Times,serif" font-size="14.00" style="">_setOwner</text>
</g>
<!-- L1ChugSplashProxy.setOwner&#45;&gt;L1ChugSplashProxy._setOwner -->
<g id="edge21" class="edge" data-name="L1ChugSplashProxy.setOwner-&gt;L1ChugSplashProxy._setOwner">

<path fill="none" stroke="#1bc6a6" stroke-width="2" d="M383.66,-588.47C421.02,-579.58 477,-566.25 517.93,-556.5" style=""/>
<polygon fill="#1bc6a6" stroke="#1bc6a6" stroke-width="2" points="518.81,-559.89 527.73,-554.17 517.19,-553.08 518.81,-559.89" style=""/>
</g>
<!-- L1ChugSplashProxy.&lt;Constructor&gt; -->
<g id="node15" class="node" pointer-events="visible" data-name="L1ChugSplashProxy.&lt;Constructor&gt;">

<ellipse fill="#ff9797" stroke="#ff9797" stroke-width="3" cx="342.63" cy="-544" rx="67.54" ry="18" style=""/>
<text text-anchor="middle" x="342.63" y="-539.8" font-family="Times,serif" font-size="14.00" style="">&lt;Constructor&gt;</text>
</g>
<!-- L1ChugSplashProxy.&lt;Constructor&gt;&#45;&gt;L1ChugSplashProxy._setOwner -->
<g id="edge11" class="edge" data-name="L1ChugSplashProxy.&lt;Constructor&gt;-&gt;L1ChugSplashProxy._setOwner">

<path fill="none" stroke="#1bc6a6" stroke-width="2" d="M410.46,-544C441.45,-544 478.06,-544 508.43,-544" style=""/>
<polygon fill="#1bc6a6" stroke="#1bc6a6" stroke-width="2" points="508.48,-547.5 518.48,-544 508.48,-540.5 508.48,-547.5" style=""/>
</g>
<!-- L1ChugSplashProxy.onlyWhenNotPaused -->
<g id="node16" class="node" pointer-events="visible" data-name="L1ChugSplashProxy.onlyWhenNotPaused">

<polygon fill="#edad56" stroke="#1bc6a6" stroke-width="3" points="443.19,-362.54 443.19,-377.46 384.28,-388 300.98,-388 242.08,-377.46 242.08,-362.54 300.98,-352 384.28,-352 443.19,-362.54" style=""/>
<polygon fill="none" stroke="#1bc6a6" stroke-width="3" points="447.18,-359.2 447.18,-380.8 384.64,-392 300.63,-392 238.09,-380.8 238.09,-359.2 300.63,-348 384.64,-348 447.18,-359.2" style=""/>
<text text-anchor="middle" x="342.63" y="-365.8" font-family="Times,serif" font-size="14.00" style="">onlyWhenNotPaused</text>
</g>
<!-- L1ChugSplashProxy._getOwner -->
<g id="node24" class="node" pointer-events="visible" data-name="L1ChugSplashProxy._getOwner">

<ellipse fill="#edad56" stroke="#edad56" stroke-width="3" cx="571.44" cy="-459" rx="53.87" ry="18" style=""/>
<text text-anchor="middle" x="571.44" y="-454.8" font-family="Times,serif" font-size="14.00" style="">_getOwner</text>
</g>
<!-- L1ChugSplashProxy.onlyWhenNotPaused&#45;&gt;L1ChugSplashProxy._getOwner -->
<g id="edge12" class="edge" data-name="L1ChugSplashProxy.onlyWhenNotPaused-&gt;L1ChugSplashProxy._getOwner">

<path fill="none" stroke="#1bc6a6" stroke-width="2" d="M416.67,-386.34C428.65,-390.33 440.66,-395.17 451.46,-401 470.03,-411.04 469.06,-421.64 487.46,-432 496.76,-437.24 507.23,-441.64 517.52,-445.26" style=""/>
<polygon fill="#1bc6a6" stroke="#1bc6a6" stroke-width="2" points="516.69,-448.68 527.29,-448.51 518.9,-442.03 516.69,-448.68" style=""/>
</g>
<!-- owner.staticcall -->
<g id="node28" class="node" pointer-events="visible" data-name="owner.staticcall">

<ellipse fill="#edad56" stroke="#edad56" stroke-width="3" cx="571.44" cy="-227" rx="45.22" ry="18" style=""/>
<text text-anchor="middle" x="571.44" y="-222.8" font-family="Times,serif" font-size="14.00" style="">staticcall</text>
</g>
<!-- L1ChugSplashProxy.onlyWhenNotPaused&#45;&gt;owner.staticcall -->
<g id="edge13" class="edge" data-name="L1ChugSplashProxy.onlyWhenNotPaused-&gt;owner.staticcall">

<path fill="none" stroke="white" stroke-width="2" d="M422.54,-354.68C432.84,-350.62 442.81,-345.49 451.46,-339 475.42,-321.02 466.5,-303.42 487.46,-282 501,-268.16 518.57,-255.9 534.07,-246.49" style=""/>
<polygon fill="white" stroke="white" stroke-width="2" points="536.06,-249.38 542.9,-241.29 532.51,-243.35 536.06,-249.38" style=""/>
</g>
<!-- L1ChugSplashProxy.proxyCallIfNotOwner -->
<g id="node17" class="node" pointer-events="visible" data-name="L1ChugSplashProxy.proxyCallIfNotOwner">

<polygon fill="#edad56" stroke="#1bc6a6" stroke-width="3" points="447.29,-424.54 447.29,-439.46 385.98,-450 299.28,-450 237.98,-439.46 237.98,-424.54 299.28,-414 385.98,-414 447.29,-424.54" style=""/>
<polygon fill="none" stroke="#1bc6a6" stroke-width="3" points="451.28,-421.17 451.28,-442.83 386.32,-454 298.94,-454 233.98,-442.83 233.98,-421.17 298.94,-410 386.32,-410 451.28,-421.17" style=""/>
<text text-anchor="middle" x="342.63" y="-427.8" font-family="Times,serif" font-size="14.00" style="">proxyCallIfNotOwner</text>
</g>
<!-- L1ChugSplashProxy.proxyCallIfNotOwner&#45;&gt;L1ChugSplashProxy._getOwner -->
<g id="edge14" class="edge" data-name="L1ChugSplashProxy.proxyCallIfNotOwner-&gt;L1ChugSplashProxy._getOwner">

<path fill="none" stroke="#1bc6a6" stroke-width="2" d="M444.77,-444.04C467.2,-446.71 490.28,-449.46 510.45,-451.86" style=""/>
<polygon fill="#1bc6a6" stroke="#1bc6a6" stroke-width="2" points="510.05,-455.34 520.4,-453.04 510.88,-448.39 510.05,-455.34" style=""/>
</g>
<!-- L1ChugSplashProxy._doProxyCall -->
<g id="node26" class="node" pointer-events="visible" data-name="L1ChugSplashProxy._doProxyCall">

<ellipse fill="#edad56" stroke="#edad56" stroke-width="3" cx="571.44" cy="-405" rx="64.87" ry="18" style=""/>
<text text-anchor="middle" x="571.44" y="-400.8" font-family="Times,serif" font-size="14.00" style="">_doProxyCall</text>
</g>
<!-- L1ChugSplashProxy.proxyCallIfNotOwner&#45;&gt;L1ChugSplashProxy._doProxyCall -->
<g id="edge15" class="edge" data-name="L1ChugSplashProxy.proxyCallIfNotOwner-&gt;L1ChugSplashProxy._doProxyCall">

<path fill="none" stroke="#1bc6a6" stroke-width="2" d="M444.77,-419.96C464.01,-417.67 483.74,-415.32 501.68,-413.19" style=""/>
<polygon fill="#1bc6a6" stroke="#1bc6a6" stroke-width="2" points="502.23,-416.65 511.74,-411.99 501.4,-409.69 502.23,-416.65" style=""/>
</g>
<!-- L1ChugSplashProxy.&lt;Fallback&gt; -->
<g id="node18" class="node" pointer-events="visible" data-name="L1ChugSplashProxy.&lt;Fallback&gt;">

<ellipse fill="#ffbdb9" stroke="brown" stroke-width="3" cx="342.63" cy="-312" rx="55.36" ry="18" style=""/>
<text text-anchor="middle" x="342.63" y="-307.8" font-family="Times,serif" font-size="14.00" style="">&lt;Fallback&gt;</text>
</g>
<!-- L1ChugSplashProxy.&lt;Fallback&gt;&#45;&gt;L1ChugSplashProxy._doProxyCall -->
<g id="edge16" class="edge" data-name="L1ChugSplashProxy.&lt;Fallback&gt;-&gt;L1ChugSplashProxy._doProxyCall">

<path fill="none" stroke="#1bc6a6" stroke-width="2" d="M394.27,-318.42C413.16,-322.39 434.2,-328.76 451.46,-339 471.75,-351.03 467.6,-365.27 487.46,-378 494.87,-382.75 503.2,-386.74 511.64,-390.06" style=""/>
<polygon fill="#1bc6a6" stroke="#1bc6a6" stroke-width="2" points="510.58,-393.4 521.17,-393.54 512.98,-386.82 510.58,-393.4" style=""/>
</g>
<!-- L1ChugSplashProxy.getOwner -->
<g id="node19" class="node" pointer-events="visible" data-name="L1ChugSplashProxy.getOwner">

<ellipse fill="#ff9797" stroke="#ff9797" stroke-width="3" cx="342.63" cy="-490" rx="49.22" ry="18" style=""/>
<text text-anchor="middle" x="342.63" y="-485.8" font-family="Times,serif" font-size="14.00" style="">getOwner</text>
</g>
<!-- L1ChugSplashProxy.getOwner&#45;&gt;L1ChugSplashProxy._getOwner -->
<g id="edge22" class="edge" data-name="L1ChugSplashProxy.getOwner-&gt;L1ChugSplashProxy._getOwner">

<path fill="none" stroke="#1bc6a6" stroke-width="2" d="M388.99,-483.8C424.11,-479 473.06,-472.31 511.27,-467.09" style=""/>
<polygon fill="#1bc6a6" stroke="#1bc6a6" stroke-width="2" points="511.8,-470.55 521.24,-465.73 510.85,-463.61 511.8,-470.55" style=""/>
</g>
<!-- L1ChugSplashProxy.getImplementation -->
<g id="node20" class="node" pointer-events="visible" data-name="L1ChugSplashProxy.getImplementation">

<ellipse fill="#ff9797" stroke="#ff9797" stroke-width="3" cx="571.44" cy="-351" rx="83.97" ry="18" style=""/>
<text text-anchor="middle" x="571.44" y="-346.8" font-family="Times,serif" font-size="14.00" style="">getImplementation</text>
</g>
<!-- L1ChugSplashProxy.getImplementation&#45;&gt;L1ChugSplashProxy._getImplementation -->
<g id="edge23" class="edge" data-name="L1ChugSplashProxy.getImplementation-&gt;L1ChugSplashProxy._getImplementation">

<path fill="none" stroke="#1bc6a6" stroke-width="2" d="M627.32,-364.56C656.99,-371.89 693.84,-380.99 725.06,-388.7" style=""/>
<polygon fill="#1bc6a6" stroke="#1bc6a6" stroke-width="2" points="724.44,-392.16 734.99,-391.16 726.12,-385.36 724.44,-392.16" style=""/>
</g>
<!-- L1ChugSplashProxy._doProxyCall&#45;&gt;L1ChugSplashProxy._getImplementation -->
<g id="edge24" class="edge" data-name="L1ChugSplashProxy._doProxyCall-&gt;L1ChugSplashProxy._getImplementation">

<path fill="none" stroke="#1bc6a6" stroke-width="2" d="M636.25,-405C654.07,-405 673.84,-405 693.14,-405" style=""/>
<polygon fill="#1bc6a6" stroke="#1bc6a6" stroke-width="2" points="693.17,-408.5 703.17,-405 693.17,-401.5 693.17,-408.5" style=""/>
</g>
<!-- iL1ChugSplashDeployer.isUpgrading -->
<g id="node27" class="node" pointer-events="visible" data-name="iL1ChugSplashDeployer.isUpgrading">

<ellipse fill="#ffbdb9" stroke="#ffbdb9" stroke-width="3" cx="106.4" cy="-791" rx="58.55" ry="18" style=""/>
<text text-anchor="middle" x="106.4" y="-786.8" font-family="Times,serif" font-size="14.00" style="">isUpgrading</text>
</g>
<!-- key -->
<g id="node29" class="node" pointer-events="visible" data-name="key">

<polygon fill="#edad56" stroke="transparent" stroke-width="3" points="171.4,-946 41.4,-946 41.4,-858 171.4,-858 171.4,-946" style=""/>
<text text-anchor="start" x="91.04" y="-927.4" font-family="Times,serif" font-size="14.00" style="">Internal Call</text>
<text text-anchor="start" x="87.15" y="-907.4" font-family="Times,serif" font-size="14.00" style="">External Call</text>
<text text-anchor="start" x="64.61" y="-887.4" font-family="Times,serif" font-size="14.00" style="">Defined Contract</text>
<text text-anchor="start" x="51.01" y="-867.4" font-family="Times,serif" font-size="14.00" style="">Undefined Contract</text>
</g>
<!-- key2 -->
<g id="node30" class="node" pointer-events="visible" data-name="key2">

<polygon fill="#edad56" stroke="transparent" stroke-width="3" points="369.63,-946 315.63,-946 315.63,-858 369.63,-858 369.63,-946" style=""/>
<text text-anchor="start" x="330.39" y="-927.4" font-family="Times,serif" font-size="14.00" style="">   </text>
<text text-anchor="start" x="330.39" y="-907.4" font-family="Times,serif" font-size="14.00" style="">   </text>
<polygon fill="#445773" stroke="transparent" points="328.63,-882 328.63,-902 356.63,-902 356.63,-882 328.63,-882" style=""/>
<text text-anchor="start" x="330.39" y="-887.4" font-family="Times,serif" font-size="14.00" style="">   </text>
<polygon fill="none" stroke="#e8726d" points="330.63,-864 330.63,-880 354.63,-880 354.63,-864 330.63,-864" style=""/>
</g>
<!-- key&#45;&gt;key2 -->
<g id="edge25" class="edge" data-name="key-&gt;key2">

<path fill="none" stroke="#1bc6a6" stroke-width="2" d="M164.4,-932C233.41,-932 253.19,-932 317.38,-932" style=""/>
<polygon fill="#1bc6a6" stroke="#1bc6a6" stroke-width="2" points="317.63,-935.5 327.63,-932 317.63,-928.5 317.63,-935.5" style=""/>
</g>
<!-- key&#45;&gt;key2 -->
<g id="edge26" class="edge" data-name="key-&gt;key2">

<path fill="none" stroke="white" stroke-width="2" d="M164.4,-912C233.41,-912 253.19,-912 317.38,-912" style=""/>
<polygon fill="white" stroke="white" stroke-width="2" points="317.63,-915.5 327.63,-912 317.63,-908.5 317.63,-915.5" style=""/>
</g>
</g>
</svg>