<?xml version="1.0" standalone="no"?>
<svg xmlns="http://www.w3.org/2000/svg" xmlns:xlink="http://www.w3.org/1999/xlink" width="764pt" height="116pt" viewBox="0.00 0.00 763.83 116.00">
<g id="graph0" class="graph" transform="translate(4,112) scale(1)" data-name="G">

<polygon fill="white" stroke="transparent" points="-4,4 -4,-112 759.83,-112 759.83,4 -4,4" style=""/>
<!-- AddressDictator -->
<g id="node1" class="node" pointer-events="visible" data-name="AddressDictator">

<ellipse fill="none" stroke="black" cx="74.32" cy="-90" rx="74.13" ry="18" style=""/>
<text text-anchor="middle" x="74.32" y="-85.8" font-family="Times,serif" font-size="14.00" style="">AddressDictator</text>
</g>
<!-- Lib_AddressManager -->
<g id="node2" class="node" pointer-events="visible" data-name="Lib_AddressManager">

<ellipse fill="none" stroke="black" cx="262.32" cy="-90" rx="95.47" ry="18" style=""/>
<text text-anchor="middle" x="262.32" y="-85.8" font-family="Times,serif" font-size="14.00" style="">Lib_AddressManager</text>
</g>
<!-- Ownable -->
<g id="node3" class="node" pointer-events="visible" data-name="Ownable">

<ellipse fill="none" stroke="black" cx="262.32" cy="-18" rx="45.79" ry="18" style=""/>
<text text-anchor="middle" x="262.32" y="-13.8" font-family="Times,serif" font-size="14.00" style="">Ownable</text>
</g>
<!-- Lib_AddressManager&#45;&gt;Ownable -->
<g id="edge1" class="edge" data-name="Lib_AddressManager-&gt;Ownable">

<path fill="none" stroke="black" d="M262.32,-71.7C262.32,-63.98 262.32,-54.71 262.32,-46.11" style=""/>
<polygon fill="black" stroke="black" points="265.82,-46.1 262.32,-36.1 258.82,-46.1 265.82,-46.1" style=""/>
</g>
<!-- ChugSplashDictator -->
<g id="node4" class="node" pointer-events="visible" data-name="ChugSplashDictator">

<ellipse fill="none" stroke="black" cx="465.32" cy="-90" rx="89.21" ry="18" style=""/>
<text text-anchor="middle" x="465.32" y="-85.8" font-family="Times,serif" font-size="14.00" style="">ChugSplashDictator</text>
</g>
<!-- iL1ChugSplashDeployer -->
<g id="node5" class="node" pointer-events="visible" data-name="iL1ChugSplashDeployer">

<ellipse fill="none" stroke="black" cx="465.32" cy="-18" rx="107.11" ry="18" style=""/>
<text text-anchor="middle" x="465.32" y="-13.8" font-family="Times,serif" font-size="14.00" style="">iL1ChugSplashDeployer</text>
</g>
<!-- ChugSplashDictator&#45;&gt;iL1ChugSplashDeployer -->
<g id="edge2" class="edge" data-name="ChugSplashDictator-&gt;iL1ChugSplashDeployer">

<path fill="none" stroke="black" d="M465.32,-71.7C465.32,-63.98 465.32,-54.71 465.32,-46.11" style=""/>
<polygon fill="black" stroke="black" points="468.82,-46.1 465.32,-36.1 461.82,-46.1 468.82,-46.1" style=""/>
</g>
<!-- L1ChugSplashProxy -->
<g id="node6" class="node" pointer-events="visible" data-name="L1ChugSplashProxy">

<ellipse fill="none" stroke="black" cx="664.32" cy="-90" rx="91.52" ry="18" style=""/>
<text text-anchor="middle" x="664.32" y="-85.8" font-family="Times,serif" font-size="14.00" style="">L1ChugSplashProxy</text>
</g>
</g>
</svg>